# Blender 5.2.0 LTS
# www.blender.org
mtllib Fish.mtl
o Plane
v -0.088351 0.000000 0.000503
v -0.013890 0.000642 0.043941
v 0.060781 -0.000345 0.000589
v -0.013907 0.000805 -0.044740
v -0.014090 0.000000 0.000503
v 0.060472 -0.000173 -0.022635
v 0.059986 0.000115 0.023759
v -0.014090 0.000000 -0.022621
v -0.014090 0.000000 0.023628
v -0.051221 0.000000 0.000503
v 0.023041 0.000000 0.000503
v 0.023041 0.000000 0.023628
v 0.023041 0.000000 -0.022621
v 0.060098 0.000035 0.011954
v 0.004475 0.000000 -0.045746
v -0.014090 0.000000 0.012066
v -0.069786 0.000000 0.000503
v 0.004475 0.000000 0.000503
v 0.004475 0.000000 0.046752
v 0.059986 0.000102 -0.011132
v -0.014090 0.000000 -0.011059
v -0.032655 0.000000 0.000503
v 0.041606 0.000000 0.000503
v 0.023041 0.000000 0.012066
v 0.023579 -0.000785 0.035814
v 0.004475 0.000000 0.023628
v 0.041606 0.000000 0.023628
v -0.051221 0.000000 0.012066
v -0.050354 0.000952 -0.010756
v -0.032243 0.001128 -0.021904
v 0.024136 0.000191 -0.033222
v 0.023041 0.000000 -0.011059
v 0.004475 0.000000 -0.022621
v 0.041606 0.000000 -0.022621
v 0.041606 0.000000 -0.011059
v 0.004475 0.000000 -0.011059
v 0.004475 0.000000 -0.034184
v -0.032655 0.000000 -0.011059
v 0.041630 -0.000328 0.035515
v 0.004475 0.000000 0.035190
v 0.004475 0.000000 0.012066
v 0.041606 0.000000 0.012066
v -0.032270 0.001273 0.010720
v 0.041528 -0.000385 -0.034799
v -0.088351 0.000000 -0.005278
v 0.060583 -0.000236 0.006295
v -0.004990 -0.000805 -0.046753
v -0.013925 -0.001208 -0.040976
v -0.014090 0.000000 0.006284
v -0.079069 0.000000 0.000503
v -0.004807 0.000000 0.000503
v 0.012887 0.000321 0.046599
v 0.060506 -0.000190 -0.016809
v 0.059021 0.001230 0.027692
v -0.014090 0.000000 -0.016840
v -0.013977 0.000666 0.028641
v -0.041938 0.000000 0.000503
v 0.032323 0.000000 0.000503
v 0.023041 0.000000 0.006284
v 0.023041 0.000000 0.029409
v -0.004807 0.000000 0.023628
v 0.032323 0.000000 0.023628
v -0.051221 0.000000 0.006284
v 0.021940 0.000203 -0.039495
v 0.023041 0.000000 -0.016840
v -0.004807 0.000000 -0.022621
v 0.032323 0.000000 -0.022621
v 0.058744 0.001155 -0.027698
v 0.060099 0.000042 0.017847
v 0.012835 0.000515 -0.045565
v -0.014010 -0.000062 -0.028696
v -0.014090 0.000000 0.017847
v -0.060503 0.000000 0.000503
v 0.013758 0.000000 0.000503
v -0.088351 0.000000 0.006284
v -0.005007 -0.000642 0.046312
v 0.061036 -0.000499 -0.005314
v -0.014090 0.000000 -0.005278
v -0.013979 -0.000222 0.041888
v -0.023373 0.000000 0.000503
v 0.050889 0.000000 0.000503
v 0.023041 0.000000 0.017847
v 0.022426 0.001077 0.040324
v 0.013758 0.000000 0.023628
v 0.050889 0.000000 0.023628
v -0.024505 -0.000959 0.024038
v -0.052088 -0.000952 -0.005581
v -0.023843 -0.001293 -0.023450
v 0.023041 0.000000 -0.028403
v 0.023041 0.000000 -0.005278
v 0.013758 0.000000 -0.022621
v 0.050889 0.000000 -0.022621
v 0.041606 0.000000 -0.016840
v 0.041606 0.000000 -0.005278
v 0.032323 0.000000 -0.011059
v 0.050889 0.000000 -0.011059
v 0.004475 0.000000 -0.016840
v 0.004475 0.000000 -0.005278
v -0.004807 0.000000 -0.011059
v 0.013758 0.000000 -0.011059
v 0.004475 0.000000 -0.039965
v 0.004475 0.000000 -0.028403
v -0.005077 -0.000355 -0.034279
v 0.013758 0.000000 -0.034184
v -0.032886 -0.000176 -0.016540
v -0.032655 0.000000 -0.005278
v -0.042941 -0.001607 -0.011666
v -0.023373 0.000000 -0.011059
v -0.069786 0.000000 -0.002184
v -0.069786 0.000000 0.003478
v 0.041606 0.000000 0.029409
v 0.032297 -0.000318 0.035520
v 0.050306 0.001518 0.033837
v 0.004475 0.000000 0.029409
v 0.004475 0.000000 0.040971
v -0.003739 0.000914 0.035264
v 0.013758 0.000000 0.035190
v 0.004475 0.000000 0.006284
v 0.004475 0.000000 0.017847
v -0.004807 0.000000 0.012066
v 0.013758 0.000000 0.012066
v 0.041606 0.000000 0.006284
v 0.041606 0.000000 0.017847
v 0.032323 0.000000 0.012066
v 0.050889 0.000000 0.012066
v -0.032655 0.000000 0.006284
v -0.041938 0.000000 0.012066
v -0.023758 -0.001273 0.013411
v 0.041606 0.000000 -0.028403
v 0.032422 -0.000044 -0.034192
v 0.050269 -0.000057 -0.034572
v 0.051598 -0.000627 -0.029128
v 0.032323 0.000000 -0.028403
v -0.023007 0.001442 -0.027085
v -0.023373 0.000000 0.017847
v -0.041938 0.000000 0.006284
v 0.050889 0.000000 0.017847
v 0.032323 0.000000 0.017847
v 0.032323 0.000000 0.006284
v 0.013758 0.000000 0.017847
v -0.004807 0.000000 0.017847
v -0.004807 0.000000 0.006284
v 0.014790 -0.001151 0.041666
v -0.005528 -0.000332 0.039851
v -0.005379 -0.001026 0.030306
v 0.032323 0.000000 0.029409
v -0.079069 0.000000 0.001649
v -0.060503 0.000000 -0.002319
v -0.079069 0.000000 -0.002938
v -0.023373 0.000000 -0.005278
v -0.041938 0.000000 -0.005278
v -0.040973 0.001262 -0.016671
v 0.013758 0.000000 -0.028403
v -0.004925 -0.000693 -0.029178
v -0.004703 0.001563 -0.040813
v 0.013758 0.000000 -0.005278
v -0.004807 0.000000 -0.005278
v -0.004807 0.000000 -0.016840
v 0.050889 0.000000 -0.005278
v 0.032323 0.000000 -0.005278
v 0.032323 0.000000 -0.016840
v 0.050889 0.000000 -0.016840
v 0.013758 0.000000 -0.016840
v 0.014691 -0.000192 -0.040454
v -0.023373 0.000000 -0.016840
v -0.022240 0.000959 0.028999
v -0.060503 0.000000 0.003716
v 0.051849 -0.001175 0.031189
v 0.013758 0.000000 0.029409
v 0.013758 0.000000 0.006284
v 0.050889 0.000000 0.006284
v -0.023373 0.000000 0.006284
vn -0.0000 1.0000 -0.0000
vn 0.0813 0.9942 -0.0706
vn 0.0360 0.9993 -0.0106
vn -0.0673 0.9971 -0.0346
vn -0.0343 0.9989 0.0314
vn -0.0751 0.9972 -0.0010
vn -0.0033 0.9997 0.0225
vn -0.0007 0.9995 -0.0325
vn -0.0054 0.9989 -0.0458
vn 0.0034 0.9999 -0.0123
vn 0.0234 0.9972 -0.0717
vn -0.0335 0.9994 -0.0014
vn -0.0018 0.9987 -0.0510
vn 0.0129 0.9998 0.0130
vn -0.0229 0.9992 0.0325
vn -0.0124 0.9997 0.0199
vn 0.0131 0.9997 0.0210
vn 0.0921 0.9952 0.0314
vn 0.1246 0.9922 0.0027
vn -0.0055 0.9999 0.0092
vn -0.0087 0.9999 -0.0139
vn 0.0077 0.9999 -0.0123
vn 0.0020 0.9991 0.0429
vn -0.0272 0.9994 0.0214
vn -0.0152 0.9951 -0.0976
vn 0.0161 0.9998 0.0088
vn 0.0421 0.9975 -0.0560
vn 0.0169 0.9998 -0.0106
vn 0.0204 0.9997 -0.0158
vn -0.0027 0.9929 -0.1190
vn -0.0150 0.9996 0.0241
vn 0.0476 0.9907 -0.1277
vn 0.0120 0.9999 -0.0116
vn -0.1520 0.9884 0.0051
vn -0.0158 0.9996 -0.0253
vn 0.0268 0.9948 -0.0979
vn -0.0119 0.9997 -0.0191
vn 0.0045 0.9993 0.0375
vn 0.0085 0.9995 0.0291
vn -0.0320 0.9994 -0.0112
vn -0.0007 0.9996 -0.0289
vn -0.1013 0.9925 0.0691
vn -0.0063 1.0000 -0.0034
vn -0.0163 0.9976 0.0676
vn 0.0282 0.9954 0.0911
vn -0.0306 0.9995 -0.0113
vn 0.0083 0.9996 -0.0274
vn -0.0000 -1.0000 -0.0000
vn 0.0039 0.9999 -0.0137
vn 0.0320 0.9993 0.0174
vn 0.0180 0.9998 -0.0053
vn -0.0849 0.9943 -0.0652
vn -0.0228 0.9995 0.0223
vn -0.0464 0.9962 -0.0731
vn 0.0238 0.9983 -0.0534
vn 0.0287 0.9980 0.0561
vn -0.0000 1.0000 0.0082
vn -0.0106 0.9999 0.0033
vn 0.0064 1.0000 0.0062
vn 0.0275 0.9996 0.0067
vn -0.0226 0.9997 -0.0071
vn -0.0008 0.9956 0.0935
vn -0.0076 1.0000 -0.0029
vn 0.0288 0.9961 0.0830
vn -0.0194 0.9993 -0.0311
vn 0.0037 0.9990 0.0456
vn -0.0024 1.0000 -0.0039
vn 0.0075 0.9997 -0.0226
vn -0.0121 0.9974 0.0710
vn -0.0328 0.9634 -0.2660
vn -0.0169 0.9997 -0.0204
vn 0.0177 0.9994 0.0288
vn 0.0051 0.9997 -0.0227
vn 0.0073 0.9996 0.0269
vn 0.0015 1.0000 -0.0059
vn 0.0138 0.9994 -0.0319
vn -0.0359 0.9977 -0.0576
vn -0.0045 0.9999 -0.0143
vn 0.0163 0.9997 -0.0183
vn 0.0159 0.9998 -0.0115
vn 0.0164 0.9998 0.0137
vn -0.0195 0.9997 0.0123
vn 0.0079 1.0000 -0.0047
vn 0.0220 0.9634 0.2672
vn -0.0609 0.9979 -0.0199
vn -0.0188 0.9994 -0.0302
vn -0.0032 1.0000 -0.0017
vn 0.0013 0.9994 -0.0344
vn 0.0184 0.9995 0.0244
vn 0.0102 0.9998 -0.0176
vn -0.0059 0.9994 0.0354
vn 0.0185 0.9980 -0.0608
vn -0.0134 0.9988 -0.0470
vn -0.0187 0.9692 0.2458
vn -0.0026 1.0000 0.0042
vn -0.0206 0.9995 -0.0256
vn 0.0192 0.9993 -0.0320
vn 0.0158 0.9998 0.0094
vn 0.0059 1.0000 -0.0060
vn -0.0138 0.9998 0.0112
vn 0.0115 0.9995 -0.0297
vn -0.0445 0.9696 -0.2406
vn -0.0436 0.9973 -0.0590
vn 0.0097 0.9998 0.0156
vn 0.0100 0.9999 -0.0081
vn 0.0188 0.9995 0.0250
vt 0.437500 0.437500
vt 0.500000 0.437500
vt 0.500000 0.500000
vt 0.437500 0.500000
vt 0.937500 0.437500
vt 1.000000 0.437500
vt 1.000000 0.500000
vt 0.937500 0.500000
vt 0.687500 0.437500
vt 0.750000 0.437500
vt 0.750000 0.500000
vt 0.687500 0.500000
vt 0.687500 0.187500
vt 0.750000 0.187500
vt 0.750000 0.250000
vt 0.687500 0.250000
vt 0.937500 0.187500
vt 1.000000 0.187500
vt 1.000000 0.250000
vt 0.937500 0.250000
vt 0.187500 0.437500
vt 0.250000 0.437500
vt 0.250000 0.500000
vt 0.187500 0.500000
vt 0.437500 0.187500
vt 0.500000 0.187500
vt 0.500000 0.250000
vt 0.437500 0.250000
vt 0.437500 0.687500
vt 0.500000 0.687500
vt 0.500000 0.750000
vt 0.437500 0.750000
vt 0.687500 0.687500
vt 0.750000 0.687500
vt 0.750000 0.750000
vt 0.687500 0.750000
vt 0.937500 0.687500
vt 1.000000 0.687500
vt 1.000000 0.750000
vt 0.937500 0.750000
vt 0.812500 0.687500
vt 0.875000 0.687500
vt 0.875000 0.750000
vt 0.812500 0.750000
vt 0.812500 0.562500
vt 0.875000 0.562500
vt 0.875000 0.625000
vt 0.812500 0.625000
vt 0.937500 0.562500
vt 1.000000 0.562500
vt 1.000000 0.625000
vt 0.937500 0.625000
vt 0.562500 0.687500
vt 0.625000 0.687500
vt 0.625000 0.750000
vt 0.562500 0.750000
vt 0.562500 0.562500
vt 0.625000 0.562500
vt 0.625000 0.625000
vt 0.562500 0.625000
vt 0.687500 0.562500
vt 0.750000 0.562500
vt 0.750000 0.625000
vt 0.687500 0.625000
vt 0.562500 0.937500
vt 0.625000 0.937500
vt 0.625000 1.000000
vt 0.562500 1.000000
vt 0.562500 0.812500
vt 0.625000 0.812500
vt 0.625000 0.875000
vt 0.562500 0.875000
vt 0.687500 0.812500
vt 0.750000 0.812500
vt 0.750000 0.875000
vt 0.687500 0.875000
vt 0.312500 0.562500
vt 0.375000 0.562500
vt 0.375000 0.625000
vt 0.312500 0.625000
vt 0.437500 0.562500
vt 0.500000 0.562500
vt 0.500000 0.625000
vt 0.437500 0.625000
vt 0.062500 0.437500
vt 0.125000 0.437500
vt 0.125000 0.500000
vt 0.062500 0.500000
vt 0.812500 0.187500
vt 0.875000 0.187500
vt 0.875000 0.250000
vt 0.812500 0.250000
vt 0.562500 0.187500
vt 0.625000 0.187500
vt 0.625000 0.250000
vt 0.562500 0.250000
vt 0.562500 0.062500
vt 0.625000 0.062500
vt 0.625000 0.125000
vt 0.562500 0.125000
vt 0.687500 0.062500
vt 0.750000 0.062500
vt 0.750000 0.125000
vt 0.687500 0.125000
vt 0.562500 0.437500
vt 0.625000 0.437500
vt 0.625000 0.500000
vt 0.562500 0.500000
vt 0.562500 0.312500
vt 0.625000 0.312500
vt 0.625000 0.375000
vt 0.562500 0.375000
vt 0.687500 0.312500
vt 0.750000 0.312500
vt 0.750000 0.375000
vt 0.687500 0.375000
vt 0.812500 0.437500
vt 0.875000 0.437500
vt 0.875000 0.500000
vt 0.812500 0.500000
vt 0.812500 0.312500
vt 0.875000 0.312500
vt 0.875000 0.375000
vt 0.812500 0.375000
vt 0.937500 0.312500
vt 1.000000 0.312500
vt 1.000000 0.375000
vt 0.937500 0.375000
vt 0.312500 0.437500
vt 0.375000 0.437500
vt 0.375000 0.500000
vt 0.312500 0.500000
vt 0.437500 0.312500
vt 0.500000 0.312500
vt 0.500000 0.375000
vt 0.437500 0.375000
vt 0.812500 0.812500
vt 0.875000 0.812500
vt 0.875000 0.875000
vt 0.812500 0.875000
vt 0.937500 0.812500
vt 0.937500 0.875000
vt 1.000000 0.812500
vt 0.500000 0.812500
vt 0.437500 0.812500
vt 0.250000 0.375000
vt 0.312500 0.375000
vt 0.375000 0.375000
vt 0.625000 0.000000
vt 0.687500 0.000000
vt 0.500000 0.000000
vt 0.562500 0.000000
vt 0.500000 0.062500
vt 0.812500 0.125000
vt 0.875000 0.125000
vt 0.000000 0.437500
vt 0.000000 0.500000
vt 0.187500 0.562500
vt 0.125000 0.562500
vt 0.250000 0.562500
vt 0.062500 0.562500
vt 0.000000 0.562500
vt 0.250000 0.625000
vt 0.375000 0.687500
vt 0.312500 0.687500
vt 0.500000 0.937500
vt 0.500000 1.000000
vt 0.687500 0.937500
vt 0.687500 1.000000
vt 0.750000 0.937500
vt 0.375000 0.750000
vt 0.937500 0.125000
s 1
usemtl Material
f 172/1/106 49/2/31 5/3/1 80/4/1
f 171/5/105 46/6/29 3/7/3 81/8/51
f 170/9/1 59/10/1 11/11/1 74/12/1
f 169/13/104 60/14/38 12/15/1 84/16/1
f 168/17/103 54/18/34 7/19/6 85/20/53
f 167/21/1 63/22/1 10/23/9 73/24/47
f 166/25/102 56/26/36 9/27/8 86/28/54
f 165/29/101 55/30/35 8/31/7 88/32/56
f 163/33/1 65/34/1 13/35/1 91/36/1
f 162/37/99 53/38/33 6/39/5 92/40/58
f 161/41/1 93/42/1 34/43/22 67/44/1
f 160/45/1 94/46/1 35/47/1 95/48/1
f 159/49/98 77/50/50 20/51/14 96/52/59
f 158/53/1 97/54/1 33/55/21 66/56/41
f 157/57/1 98/58/1 36/59/1 99/60/1
f 156/61/1 90/62/1 32/63/1 100/64/1
f 155/65/97 101/66/60 15/67/11 47/68/30
f 154/69/96 102/70/61 37/71/23 103/72/62
f 153/73/95 89/74/57 31/75/20 104/76/63
f 151/77/93 106/78/65 38/79/24 107/80/66
f 150/81/1 78/82/1 21/83/1 108/84/67
f 147/85/1 110/86/1 17/87/1 50/88/1
f 146/89/91 111/90/68 27/91/17 62/92/1
f 145/93/90 114/94/71 26/95/16 61/96/39
f 144/97/89 115/98/72 40/99/26 116/100/73
f 143/101/88 83/102/52 25/103/15 117/104/74
f 142/105/1 118/106/1 18/107/1 51/108/1
f 141/109/1 119/110/1 41/111/1 120/112/1
f 140/113/1 82/114/1 24/115/1 121/116/1
f 139/117/1 122/118/1 23/119/1 58/120/1
f 138/121/1 123/122/1 42/123/1 124/124/1
f 137/125/87 69/126/43 14/127/10 125/128/75
f 136/129/86 126/130/76 22/131/1 57/132/37
f 135/133/85 72/134/46 16/135/12 128/136/78
f 133/137/83 129/138/79 44/139/28 130/140/80
f 129/138/79 132/141/82 131/142/81 44/139/28
f 34/43/22 92/40/58 132/141/82 129/138/79
f 92/40/58 6/39/5 68/143/42 132/141/82
f 89/74/57 133/137/83 130/140/80 31/75/20
f 13/35/1 67/44/1 133/137/83 89/74/57
f 67/44/1 34/43/22 129/138/79 133/137/83
f 88/32/56 8/31/7 71/144/45 134/145/84
f 86/28/54 9/27/8 72/134/46 135/133/85
f 63/22/1 136/129/86 57/132/37 10/23/9
f 28/146/1 127/147/77 136/129/86 63/22/1
f 127/147/77 43/148/27 126/130/76 136/129/86
f 123/122/1 137/125/87 125/128/75 42/123/1
f 27/91/17 85/20/53 137/125/87 123/122/1
f 85/20/53 7/19/6 69/126/43 137/125/87
f 82/114/1 138/121/1 124/124/1 24/115/1
f 12/15/1 62/92/1 138/121/1 82/114/1
f 62/92/1 27/91/17 123/122/1 138/121/1
f 59/10/1 139/117/1 58/120/1 11/11/1
f 24/115/1 124/124/1 139/117/1 59/10/1
f 124/124/1 42/123/1 122/118/1 139/117/1
f 119/110/1 140/113/1 121/116/1 41/111/1
f 26/95/16 84/16/1 140/113/1 119/110/1
f 84/16/1 12/15/1 82/114/1 140/113/1
f 72/134/46 141/109/1 120/112/1 16/135/12
f 9/27/8 61/96/39 141/109/1 72/134/46
f 61/96/39 26/95/16 119/110/1 141/109/1
f 49/2/31 142/105/1 51/108/1 5/3/1
f 16/135/12 120/112/1 142/105/1 49/2/31
f 120/112/1 41/111/1 118/106/1 142/105/1
f 115/98/72 143/101/88 117/104/74 40/99/26
f 19/149/13 52/150/32 143/101/88 115/98/72
f 2/151/2 76/152/49 144/97/89 79/153/2
f 76/152/49 19/149/13 115/98/72 144/97/89
f 56/26/36 145/93/90 61/96/39 9/27/8
f 116/100/73 40/99/26 114/94/71 145/93/90
f 60/14/38 146/89/91 62/92/1 12/15/1
f 25/103/15 112/154/69 146/89/91 60/14/38
f 112/154/69 39/155/25 111/90/68 146/89/91
f 75/156/48 147/85/1 50/88/1 1/157/1
f 17/87/1 73/24/47 148/158/92 109/159/1
f 73/24/47 10/23/9 87/160/55 148/158/92
f 1/157/1 50/88/1 149/161/1 45/162/1
f 50/88/1 17/87/1 109/159/1 149/161/1
f 106/78/65 150/81/1 108/84/67 38/79/24
f 22/131/1 80/4/1 150/81/1 106/78/65
f 80/4/1 5/3/1 78/82/1 150/81/1
f 87/160/55 151/77/93 107/80/66 29/163/18
f 10/23/9 57/132/37 151/77/93 87/160/55
f 57/132/37 22/131/1 106/78/65 151/77/93
f 107/80/66 38/79/24 105/164/64 152/165/94
f 102/70/61 153/73/95 104/76/63 37/71/23
f 33/55/21 91/36/1 153/73/95 102/70/61
f 91/36/1 13/35/1 89/74/57 153/73/95
f 8/31/7 66/56/41 154/69/96 71/144/45
f 66/56/41 33/55/21 102/70/61 154/69/96
f 48/166/4 155/65/97 47/68/30 4/167/4
f 103/72/62 37/71/23 101/66/60 155/65/97
f 98/58/1 156/61/1 100/64/1 36/59/1
f 18/107/1 74/12/1 156/61/1 98/58/1
f 74/12/1 11/11/1 90/62/1 156/61/1
f 78/82/1 157/57/1 99/60/1 21/83/1
f 5/3/1 51/108/1 157/57/1 78/82/1
f 51/108/1 18/107/1 98/58/1 157/57/1
f 55/30/35 158/53/1 66/56/41 8/31/7
f 21/83/1 99/60/1 158/53/1 55/30/35
f 99/60/1 36/59/1 97/54/1 158/53/1
f 94/46/1 159/49/98 96/52/59 35/47/1
f 23/119/1 81/8/51 159/49/98 94/46/1
f 81/8/51 3/7/3 77/50/50 159/49/98
f 90/62/1 160/45/1 95/48/1 32/63/1
f 11/11/1 58/120/1 160/45/1 90/62/1
f 58/120/1 23/119/1 94/46/1 160/45/1
f 65/34/1 161/41/1 67/44/1 13/35/1
f 32/63/1 95/48/1 161/41/1 65/34/1
f 95/48/1 35/47/1 93/42/1 161/41/1
f 93/42/1 162/37/99 92/40/58 34/43/22
f 35/47/1 96/52/59 162/37/99 93/42/1
f 96/52/59 20/51/14 53/38/33 162/37/99
f 97/54/1 163/33/1 91/36/1 33/55/21
f 36/59/1 100/64/1 163/33/1 97/54/1
f 100/64/1 32/63/1 65/34/1 163/33/1
f 101/66/60 164/168/100 70/169/44 15/67/11
f 37/71/23 104/76/63 164/168/100 101/66/60
f 104/76/63 31/75/20 64/170/40 164/168/100
f 105/164/64 165/29/101 88/32/56 30/171/19
f 38/79/24 108/84/67 165/29/101 105/164/64
f 108/84/67 21/83/1 55/30/35 165/29/101
f 110/86/1 167/21/1 73/24/47 17/87/1
f 111/90/68 168/17/103 85/20/53 27/91/17
f 39/155/25 113/172/70 168/17/103 111/90/68
f 114/94/71 169/13/104 84/16/1 26/95/16
f 40/99/26 117/104/74 169/13/104 114/94/71
f 117/104/74 25/103/15 60/14/38 169/13/104
f 118/106/1 170/9/1 74/12/1 18/107/1
f 41/111/1 121/116/1 170/9/1 118/106/1
f 121/116/1 24/115/1 59/10/1 170/9/1
f 122/118/1 171/5/105 81/8/51 23/119/1
f 42/123/1 125/128/75 171/5/105 122/118/1
f 125/128/75 14/127/10 46/6/29 171/5/105
f 126/130/76 172/1/106 80/4/1 22/131/1
f 43/148/27 128/136/78 172/1/106 126/130/76
f 128/136/78 16/135/12 49/2/31 172/1/106
f 147/85/1 75/156/48 110/86/1
f 75/156/48 1/157/1 167/21/1 110/86/1
